<svg width="62" height="62" viewBox="0 0 62 62" fill="none" xmlns="http://www.w3.org/2000/svg">
<circle cx="31" cy="31" r="31" fill="#2F2F2F"/>
<path d="M19 23.2222V26.3333H43.8889V23.2222C43.8889 22.3971 43.5611 21.6058 42.9777 21.0223C42.3942 20.4389 41.6029 20.1111 40.7778 20.1111H22.1111C21.286 20.1111 20.4947 20.4389 19.9112 21.0223C19.3278 21.6058 19 22.3971 19 23.2222Z" fill="white"/>
<path fill-rule="evenodd" clip-rule="evenodd" d="M25.2222 16C25.7745 16 26.2222 16.4477 26.2222 17V19.1111H36.6667V17C36.6667 16.4477 37.1144 16 37.6667 16C38.219 16 38.6667 16.4477 38.6667 17V19.1111H40.7778C41.8681 19.1111 42.9138 19.5442 43.6848 20.3152C44.4558 21.0862 44.8889 22.1319 44.8889 23.2222V26.3333C44.8889 26.4713 44.861 26.6027 44.8105 26.7222C44.861 26.8418 44.8889 26.9732 44.8889 27.1111V41.8889C44.8889 42.9792 44.4558 44.0249 43.6848 44.7959C42.9138 45.5669 41.8681 46 40.7778 46H22.1111C21.0208 46 19.9751 45.5669 19.2041 44.7959C18.4331 44.0249 18 42.9792 18 41.8889V27.1111C18 26.9732 18.0279 26.8418 18.0784 26.7222C18.0279 26.6027 18 26.4713 18 26.3333V23.2222C18 22.1319 18.4331 21.0862 19.2041 20.3152C19.9751 19.5442 21.0208 19.1111 22.1111 19.1111H24.2222V17C24.2222 16.4477 24.6699 16 25.2222 16ZM20 25.3333V23.2222C20 22.6623 20.2224 22.1254 20.6183 21.7294C21.0142 21.3335 21.5512 21.1111 22.1111 21.1111H40.7778C41.3377 21.1111 41.8746 21.3335 42.2706 21.7294C42.6665 22.1254 42.8889 22.6623 42.8889 23.2222V25.3333H20ZM42.8889 27.3333H20V41.8889C20 42.4488 20.2224 42.9858 20.6183 43.3817C21.0142 43.7776 21.5512 44 22.1111 44H40.7778C41.3377 44 41.8746 43.7776 42.2706 43.3817C42.6665 42.9858 42.8889 42.4488 42.8889 41.8889V27.3333Z" fill="white"/>
</svg>
