<svg width="62" height="62" viewBox="0 0 62 62" fill="none" xmlns="http://www.w3.org/2000/svg">
<g id="notification">
<circle id="Ellipse 3" cx="31" cy="31" r="31" fill="#2F2F2F"/>
<path id="Vector" d="M22.3077 25.6154C22.3077 23.3304 23.2154 21.1391 24.8311 19.5234C26.4468 17.9077 28.6381 17 30.9231 17C33.208 17 35.3994 17.9077 37.0151 19.5234C38.6308 21.1391 39.5385 23.3304 39.5385 25.6154V29.8039C39.5385 30.8133 39.8658 31.7955 40.4718 32.6039L43.4154 36.5282C43.6554 36.8482 43.8015 37.2287 43.8374 37.6271C43.8734 38.0255 43.7976 38.426 43.6188 38.7837C43.4399 39.1415 43.1649 39.4424 42.8247 39.6527C42.4844 39.863 42.0923 39.9744 41.6923 39.9744H20.1538C19.7539 39.9744 19.3618 39.863 19.0215 39.6527C18.6812 39.4424 18.4063 39.1415 18.2274 38.7837C18.0485 38.426 17.9728 38.0255 18.0087 37.6271C18.0446 37.2287 18.1908 36.8482 18.4308 36.5282L21.3744 32.6039C21.9802 31.7961 22.3077 30.8136 22.3077 29.8039V25.6154ZM30.9231 45C29.8407 44.9998 28.7873 44.6504 27.9193 44.0037C27.0514 43.3569 26.4153 42.4474 26.1056 41.4103H35.7405C35.4308 42.4474 34.7947 43.3569 33.9268 44.0037C33.0589 44.6504 32.0055 44.9998 30.9231 45Z" fill="#FFE605"/>
</g>
</svg>
