<svg width="23" height="26" viewBox="0 0 23 26" fill="none" xmlns="http://www.w3.org/2000/svg">
<path id="Vector" d="M21 4.87342L13.481 0.531646C12.2532 -0.177215 10.7342 -0.177215 9.49366 0.531646L1.98734 4.87342C0.759495 5.58228 0 6.89874 0 8.32912V16.9874C0 18.4051 0.759495 19.7215 1.98734 20.4431L9.50631 24.7848C10.7342 25.4937 12.2532 25.4937 13.4937 24.7848L21.0127 20.4431C22.2405 19.7342 23 18.4177 23 16.9874V8.32912C22.9873 6.89874 22.2278 5.59494 21 4.87342ZM10.5443 7.27849C10.5443 6.7595 10.9747 6.32912 11.4937 6.32912C12.0126 6.32912 12.443 6.7595 12.443 7.27849V13.9241C12.443 14.4431 12.0126 14.8734 11.4937 14.8734C10.9747 14.8734 10.5443 14.4431 10.5443 13.9241V7.27849ZM12.6582 18.519C12.5949 18.6709 12.5063 18.8101 12.3924 18.9367C12.1519 19.1772 11.8354 19.3038 11.4937 19.3038C11.3291 19.3038 11.1645 19.2658 11.0126 19.2026C10.8481 19.1393 10.7215 19.0507 10.5949 18.9367C10.481 18.8101 10.3924 18.6709 10.3164 18.519C10.2531 18.3671 10.2278 18.2026 10.2278 18.038C10.2278 17.7089 10.3544 17.3798 10.5949 17.1393C10.7215 17.0253 10.8481 16.9367 11.0126 16.8734C11.481 16.6709 12.038 16.7848 12.3924 17.1393C12.5063 17.2658 12.5949 17.3924 12.6582 17.557C12.7215 17.7089 12.7595 17.8734 12.7595 18.038C12.7595 18.2026 12.7215 18.3671 12.6582 18.519Z" fill="#BC0E0E"/>
</svg>
